<svg id="Capa_1" enable-background="new 0 0 512.149 512.149" height="512" viewBox="0 0 512.149 512.149" width="512" xmlns="http://www.w3.org/2000/svg"><g><path d="m145.008 512.149c-3.941 0-7.768-1.556-10.605-4.393l-33.254-33.254-4.815-16.815-17.234-5.234-21.34-21.34-5.677-17.678-16.318-4.318-31.371-31.37c-4.439-4.44-5.645-11.174-3.02-16.877 12.367-26.875 29.493-32.208 44.603-36.912 10.432-3.248 19.44-6.053 29.638-16.25 12.471-12.471 15.988-20.646 20.061-30.111 4.624-10.746 9.864-22.926 26.404-39.466s28.721-21.78 39.467-26.404c9.465-4.072 17.64-7.59 30.11-20.06 12.471-12.471 15.987-20.645 20.061-30.111 4.623-10.746 9.864-22.927 26.404-39.467 16.541-16.541 28.722-21.782 39.469-26.406 9.466-4.073 17.642-7.591 30.112-20.062 10.198-10.198 13.004-19.208 16.252-29.64 4.705-15.11 10.037-32.236 36.913-44.606 5.704-2.625 12.44-1.42 16.878 3.02l31.71 31.709 2.986 16.986 19.069 5.069 21.281 21.281 1.653 15.653 20.402 6.402 32.908 32.907c3.47 3.47 5.023 8.417 4.159 13.248-.864 4.83-4.036 8.933-8.494 10.984-14.745 6.787-16.773 13.299-20.814 26.273-3.677 11.809-8.254 26.505-23.683 41.934-16.54 16.541-28.721 21.782-39.468 26.406-9.466 4.073-17.641 7.591-30.112 20.062s-15.988 20.646-20.061 30.111c-4.623 10.747-9.864 22.927-26.404 39.467-16.54 16.541-28.72 21.781-39.467 26.405-9.465 4.072-17.64 7.589-30.109 20.059-12.471 12.471-15.988 20.646-20.061 30.111-4.624 10.747-9.864 22.927-26.404 39.467-15.428 15.428-30.124 20.003-41.933 23.68-12.973 4.039-19.484 6.066-26.269 20.81-2.052 4.458-6.154 7.631-10.984 8.495-.88.158-1.764.235-2.643.235z" fill="#fc5866"/><g><path d="m452.792 79.439c-21.689 12.859-27.121 28.648-31.959 42.728-3.679 10.707-7.154 20.821-18.475 32.142-13.69 13.689-22.46 17.718-32.616 22.381-11.162 5.126-23.815 10.937-41.309 28.431-17.494 17.493-23.304 30.146-28.43 41.308-4.663 10.155-8.69 18.925-22.379 32.614s-22.459 17.716-32.613 22.379c-11.162 5.126-23.814 10.935-41.307 28.429-17.494 17.493-23.304 30.145-28.43 41.308-4.663 10.154-8.689 18.924-22.379 32.613-11.319 11.318-21.432 14.793-32.139 18.472-13.694 4.705-29.001 9.977-41.658 30.21l22.048 22.048c.039-.076.082-.147.12-.224 7.986-16.36 15.535-18.954 29.237-23.662 12.199-4.19 27.381-9.407 43.605-25.631 17.494-17.493 23.304-30.145 28.43-41.308 4.663-10.154 8.689-18.924 22.379-32.613 13.688-13.689 22.459-17.716 32.613-22.379 11.162-5.126 23.814-10.936 41.307-28.429 17.494-17.493 23.304-30.145 28.43-41.308 4.663-10.155 8.69-18.925 22.379-32.614 13.69-13.689 22.461-17.717 32.616-22.381 11.163-5.126 23.814-10.936 41.309-28.431 16.226-16.225 21.442-31.407 25.634-43.605 4.709-13.704 7.303-21.253 23.665-29.241.703-.343 1.354-.748 1.977-1.181z" fill="#fbc182"/><path d="m431.511 58.158-22.055-22.055c-21.689 12.859-27.12 28.648-31.959 42.728-3.679 10.707-7.154 20.82-18.475 32.142-13.69 13.689-22.46 17.718-32.616 22.381-11.162 5.126-23.814 10.937-41.309 28.431-17.494 17.493-23.304 30.145-28.43 41.308-4.663 10.155-8.691 18.925-22.379 32.614-13.688 13.688-22.459 17.716-32.613 22.379-11.162 5.126-23.813 10.936-41.307 28.429s-23.304 30.145-28.43 41.307c-4.663 10.155-8.69 18.925-22.379 32.614-11.319 11.318-21.433 14.793-32.139 18.472-13.694 4.705-29.001 9.977-41.658 30.211l22.048 22.048c.039-.076.082-.147.12-.224 7.986-16.36 15.535-18.954 29.237-23.662 12.199-4.19 27.381-9.407 43.605-25.631 17.493-17.493 23.304-30.145 28.43-41.308 4.663-10.154 8.689-18.924 22.379-32.613 13.689-13.688 22.459-17.716 32.613-22.379 11.162-5.126 23.814-10.936 41.307-28.429 17.494-17.493 23.304-30.145 28.43-41.308 4.663-10.155 8.691-18.925 22.379-32.614 13.69-13.689 22.461-17.717 32.616-22.381 11.163-5.126 23.814-10.937 41.309-28.431 16.226-16.226 21.442-31.407 25.634-43.605 4.709-13.704 7.303-21.253 23.664-29.241.704-.345 1.354-.75 1.978-1.183z" fill="#fbd9b0"/></g></g></svg>